<svg width="16" height="9" viewBox="0 0 16 9" fill="none" xmlns="http://www.w3.org/2000/svg">
<g id="my_keyboard">
<path id="Vector" d="M14 1C14.2652 1 14.5196 1.10536 14.7071 1.29289C14.8946 1.48043 15 1.73478 15 2V7C15 7.26522 14.8946 7.51957 14.7071 7.70711C14.5196 7.89464 14.2652 8 14 8H2C1.73478 8 1.48043 7.89464 1.29289 7.70711C1.10536 7.51957 1 7.26522 1 7V2C1 1.73478 1.10536 1.48043 1.29289 1.29289C1.48043 1.10536 1.73478 1 2 1H14ZM2 0C1.46957 0 0.960859 0.210714 0.585786 0.585786C0.210714 0.960859 0 1.46957 0 2L0 7C0 7.53043 0.210714 8.03914 0.585786 8.41421C0.960859 8.78929 1.46957 9 2 9H14C14.5304 9 15.0391 8.78929 15.4142 8.41421C15.7893 8.03914 16 7.53043 16 7V2C16 1.46957 15.7893 0.960859 15.4142 0.585786C15.0391 0.210714 14.5304 0 14 0H2Z" fill="black"/>
<g id="tecla1">
<rect id="Rectangle 1" x="2" y="2" width="2" height="1" fill="black"/>
</g>
<g id="tecla2">
<rect id="Rectangle 2" x="5" y="2" width="1" height="1" fill="black"/>
</g>
<g id="tecla3">
<rect id="Rectangle 3" x="7" y="2" width="1" height="1" fill="black"/>
</g>
<g id="tecla4">
<rect id="Rectangle 4" x="9" y="2" width="1" height="1" fill="black"/>
</g>
<g id="tecla5">
<rect id="Rectangle 5" x="11" y="2" width="1" height="1" fill="black"/>
</g>
<g id="tecla6">
<rect id="Rectangle 6" x="13" y="2" width="1" height="1" fill="black"/>
</g>
<g id="tecla7">
<rect id="Rectangle 7" x="2" y="4" width="1" height="1" fill="black"/>
</g>
<g id="tecla8">
<g id="Group 1">
<rect id="Rectangle 8" x="4" y="4" width="1" height="1" fill="black"/>
</g>
</g>
<g id="tecla9">
<rect id="Rectangle 9" x="6" y="4" width="1" height="1" fill="black"/>
</g>
<g id="tecla10">
<rect id="Rectangle 10" x="8" y="4" width="1" height="1" fill="black"/>
</g>
<g id="tecla11">
<rect id="Rectangle 11" x="10" y="4" width="2" height="1" fill="black"/>
</g>
<g id="tecla12">
<rect id="Rectangle 12" x="13" y="4" width="1" height="1" fill="black"/>
</g>
<g id="tecla13">
<rect id="Rectangle 13" x="2" y="6" width="1" height="1" fill="black"/>
</g>
<g id="tecla14">
<rect id="Rectangle 14" x="4" y="6" width="6" height="1" fill="black"/>
</g>
<g id="tecla15">
<rect id="Rectangle 15" x="11" y="6" width="1" height="1" fill="black"/>
</g>
<g id="tecla16">
<rect id="Rectangle 16" x="13" y="6" width="1" height="1" fill="black"/>
</g>
</g>
</svg>
