<svg xmlns="http://www.w3.org/2000/svg" xmlns:xlink="http://www.w3.org/1999/xlink" width="800" zoomAndPan="magnify" viewBox="0 0 600 599.999999" height="800" preserveAspectRatio="xMidYMid meet" version="1.0"><defs><clipPath id="7444e286b0"><path d="M 17.082031 37.59375 L 582.582031 37.59375 L 582.582031 562.59375 L 17.082031 562.59375 Z M 17.082031 37.59375 " clip-rule="nonzero"/></clipPath><clipPath id="a53f8dbd60"><path d="M 58.691406 37.59375 L 540.96875 37.59375 C 542.320312 37.59375 543.671875 37.65625 545.015625 37.789062 C 546.363281 37.921875 547.699219 38.121094 549.023438 38.386719 C 550.351562 38.648438 551.660156 38.976562 552.953125 39.371094 C 554.25 39.765625 555.519531 40.21875 556.769531 40.738281 C 558.019531 41.253906 559.238281 41.832031 560.433594 42.472656 C 561.625 43.109375 562.785156 43.804688 563.90625 44.558594 C 565.03125 45.308594 566.117188 46.113281 567.164062 46.972656 C 568.207031 47.832031 569.207031 48.738281 570.164062 49.695312 C 571.121094 50.652344 572.027344 51.65625 572.886719 52.703125 C 573.742188 53.746094 574.546875 54.832031 575.300781 55.957031 C 576.050781 57.085938 576.746094 58.242188 577.382812 59.4375 C 578.019531 60.632812 578.597656 61.851562 579.113281 63.105469 C 579.632812 64.355469 580.085938 65.625 580.480469 66.921875 C 580.871094 68.21875 581.199219 69.527344 581.464844 70.855469 C 581.726562 72.183594 581.925781 73.519531 582.058594 74.867188 C 582.191406 76.214844 582.257812 77.566406 582.257812 78.917969 L 582.257812 521.265625 C 582.257812 522.617188 582.191406 523.96875 582.058594 525.316406 C 581.925781 526.664062 581.726562 528 581.464844 529.328125 C 581.199219 530.65625 580.871094 531.964844 580.480469 533.261719 C 580.085938 534.558594 579.632812 535.828125 579.113281 537.078125 C 578.597656 538.332031 578.019531 539.550781 577.382812 540.746094 C 576.746094 541.941406 576.050781 543.097656 575.300781 544.226562 C 574.546875 545.351562 573.742188 546.4375 572.886719 547.480469 C 572.027344 548.527344 571.121094 549.53125 570.164062 550.488281 C 569.207031 551.445312 568.207031 552.351562 567.164062 553.210938 C 566.117188 554.070312 565.03125 554.875 563.90625 555.625 C 562.785156 556.378906 561.625 557.074219 560.433594 557.710938 C 559.238281 558.351562 558.019531 558.929688 556.769531 559.445312 C 555.519531 559.964844 554.25 560.417969 552.953125 560.8125 C 551.660156 561.207031 550.351562 561.535156 549.023438 561.796875 C 547.699219 562.0625 546.363281 562.261719 545.015625 562.394531 C 543.671875 562.527344 542.320312 562.589844 540.96875 562.589844 L 58.691406 562.589844 C 57.339844 562.589844 55.988281 562.527344 54.644531 562.394531 C 53.296875 562.261719 51.960938 562.0625 50.636719 561.796875 C 49.308594 561.535156 48 561.207031 46.707031 560.8125 C 45.410156 560.417969 44.140625 559.964844 42.890625 559.445312 C 41.640625 558.929688 40.421875 558.351562 39.226562 557.710938 C 38.035156 557.074219 36.875 556.378906 35.753906 555.625 C 34.628906 554.875 33.542969 554.070312 32.496094 553.210938 C 31.453125 552.351562 30.453125 551.445312 29.496094 550.488281 C 28.539062 549.53125 27.632812 548.527344 26.773438 547.480469 C 25.917969 546.4375 25.113281 545.351562 24.359375 544.226562 C 23.609375 543.097656 22.914062 541.941406 22.277344 540.746094 C 21.640625 539.550781 21.0625 538.332031 20.546875 537.078125 C 20.027344 535.828125 19.574219 534.558594 19.179688 533.261719 C 18.789062 531.964844 18.460938 530.65625 18.195312 529.328125 C 17.933594 528 17.734375 526.664062 17.601562 525.316406 C 17.46875 523.96875 17.402344 522.617188 17.402344 521.265625 L 17.402344 78.917969 C 17.402344 77.566406 17.46875 76.214844 17.601562 74.867188 C 17.734375 73.519531 17.933594 72.183594 18.195312 70.855469 C 18.460938 69.527344 18.789062 68.21875 19.179688 66.921875 C 19.574219 65.625 20.027344 64.355469 20.546875 63.105469 C 21.0625 61.851562 21.640625 60.632812 22.277344 59.4375 C 22.914062 58.242188 23.609375 57.085938 24.359375 55.957031 C 25.113281 54.832031 25.917969 53.746094 26.773438 52.703125 C 27.632812 51.65625 28.539062 50.652344 29.496094 49.695312 C 30.453125 48.738281 31.453125 47.832031 32.496094 46.972656 C 33.542969 46.113281 34.628906 45.308594 35.753906 44.558594 C 36.875 43.804688 38.035156 43.109375 39.226562 42.472656 C 40.421875 41.832031 41.640625 41.253906 42.890625 40.738281 C 44.140625 40.21875 45.410156 39.765625 46.707031 39.371094 C 48 38.976562 49.308594 38.648438 50.636719 38.386719 C 51.960938 38.121094 53.296875 37.921875 54.644531 37.789062 C 55.988281 37.65625 57.339844 37.59375 58.691406 37.59375 Z M 58.691406 37.59375 " clip-rule="nonzero"/></clipPath><linearGradient x1="24" gradientTransform="matrix(13.448928, 0, 0, 13.461537, -22.944115, -22.98509)" y1="4.500001" x2="24" gradientUnits="userSpaceOnUse" y2="43.500001" id="12371ceaff"><stop stop-opacity="1" stop-color="rgb(95.298767%, 65.397644%, 43.811035%)" offset="0"/><stop stop-opacity="1" stop-color="rgb(95.298767%, 65.267944%, 43.768311%)" offset="0.015625"/><stop stop-opacity="1" stop-color="rgb(95.298767%, 65.008545%, 43.681335%)" offset="0.03125"/><stop stop-opacity="1" stop-color="rgb(95.298767%, 64.749146%, 43.59436%)" offset="0.046875"/><stop stop-opacity="1" stop-color="rgb(95.298767%, 64.489746%, 43.507385%)" offset="0.0625"/><stop stop-opacity="1" stop-color="rgb(95.298767%, 64.231873%, 43.42041%)" offset="0.078125"/><stop stop-opacity="1" stop-color="rgb(95.298767%, 63.972473%, 43.333435%)" offset="0.09375"/><stop stop-opacity="1" stop-color="rgb(95.298767%, 63.713074%, 43.24646%)" offset="0.109375"/><stop stop-opacity="1" stop-color="rgb(95.298767%, 63.453674%, 43.159485%)" offset="0.125"/><stop stop-opacity="1" stop-color="rgb(95.298767%, 63.194275%, 43.074036%)" offset="0.140625"/><stop stop-opacity="1" stop-color="rgb(95.298767%, 62.936401%, 42.987061%)" offset="0.15625"/><stop stop-opacity="1" stop-color="rgb(95.298767%, 62.677002%, 42.900085%)" offset="0.171875"/><stop stop-opacity="1" stop-color="rgb(95.298767%, 62.417603%, 42.81311%)" offset="0.1875"/><stop stop-opacity="1" stop-color="rgb(95.298767%, 62.158203%, 42.726135%)" offset="0.203125"/><stop stop-opacity="1" stop-color="rgb(95.298767%, 61.90033%, 42.63916%)" offset="0.21875"/><stop stop-opacity="1" stop-color="rgb(95.298767%, 61.64093%, 42.552185%)" offset="0.234375"/><stop stop-opacity="1" stop-color="rgb(95.298767%, 61.381531%, 42.46521%)" offset="0.25"/><stop stop-opacity="1" stop-color="rgb(95.298767%, 61.122131%, 42.379761%)" offset="0.265625"/><stop stop-opacity="1" stop-color="rgb(95.298767%, 60.864258%, 42.292786%)" offset="0.28125"/><stop stop-opacity="1" stop-color="rgb(95.298767%, 60.604858%, 42.205811%)" offset="0.296875"/><stop stop-opacity="1" stop-color="rgb(95.298767%, 60.345459%, 42.118835%)" offset="0.3125"/><stop stop-opacity="1" stop-color="rgb(95.298767%, 60.08606%, 42.03186%)" offset="0.328125"/><stop stop-opacity="1" stop-color="rgb(95.298767%, 59.828186%, 41.944885%)" offset="0.34375"/><stop stop-opacity="1" stop-color="rgb(95.298767%, 59.568787%, 41.85791%)" offset="0.359375"/><stop stop-opacity="1" stop-color="rgb(95.298767%, 59.309387%, 41.770935%)" offset="0.375"/><stop stop-opacity="1" stop-color="rgb(95.298767%, 59.049988%, 41.685486%)" offset="0.390625"/><stop stop-opacity="1" stop-color="rgb(95.298767%, 58.792114%, 41.598511%)" offset="0.40625"/><stop stop-opacity="1" stop-color="rgb(95.298767%, 58.532715%, 41.511536%)" offset="0.421875"/><stop stop-opacity="1" stop-color="rgb(95.298767%, 58.273315%, 41.424561%)" offset="0.4375"/><stop stop-opacity="1" stop-color="rgb(95.298767%, 58.013916%, 41.337585%)" offset="0.453125"/><stop stop-opacity="1" stop-color="rgb(95.298767%, 57.756042%, 41.25061%)" offset="0.46875"/><stop stop-opacity="1" stop-color="rgb(95.275879%, 57.446289%, 41.19873%)" offset="0.484375"/><stop stop-opacity="1" stop-color="rgb(95.230103%, 57.080078%, 41.184998%)" offset="0.5"/><stop stop-opacity="1" stop-color="rgb(95.181274%, 56.70929%, 41.174316%)" offset="0.515625"/><stop stop-opacity="1" stop-color="rgb(95.13092%, 56.336975%, 41.165161%)" offset="0.53125"/><stop stop-opacity="1" stop-color="rgb(95.082092%, 55.966187%, 41.15448%)" offset="0.546875"/><stop stop-opacity="1" stop-color="rgb(95.033264%, 55.593872%, 41.143799%)" offset="0.5625"/><stop stop-opacity="1" stop-color="rgb(94.984436%, 55.223083%, 41.134644%)" offset="0.578125"/><stop stop-opacity="1" stop-color="rgb(94.934082%, 54.850769%, 41.123962%)" offset="0.59375"/><stop stop-opacity="1" stop-color="rgb(94.885254%, 54.47998%, 41.113281%)" offset="0.609375"/><stop stop-opacity="1" stop-color="rgb(94.836426%, 54.109192%, 41.104126%)" offset="0.625"/><stop stop-opacity="1" stop-color="rgb(94.786072%, 53.736877%, 41.093445%)" offset="0.640625"/><stop stop-opacity="1" stop-color="rgb(94.737244%, 53.366089%, 41.08429%)" offset="0.65625"/><stop stop-opacity="1" stop-color="rgb(94.688416%, 52.993774%, 41.073608%)" offset="0.671875"/><stop stop-opacity="1" stop-color="rgb(94.639587%, 52.622986%, 41.062927%)" offset="0.6875"/><stop stop-opacity="1" stop-color="rgb(94.589233%, 52.252197%, 41.053772%)" offset="0.703125"/><stop stop-opacity="1" stop-color="rgb(94.540405%, 51.879883%, 41.043091%)" offset="0.71875"/><stop stop-opacity="1" stop-color="rgb(94.491577%, 51.509094%, 41.03241%)" offset="0.734375"/><stop stop-opacity="1" stop-color="rgb(94.441223%, 51.13678%, 41.023254%)" offset="0.75"/><stop stop-opacity="1" stop-color="rgb(94.392395%, 50.765991%, 41.012573%)" offset="0.765625"/><stop stop-opacity="1" stop-color="rgb(94.343567%, 50.395203%, 41.003418%)" offset="0.78125"/><stop stop-opacity="1" stop-color="rgb(94.294739%, 50.022888%, 40.992737%)" offset="0.796875"/><stop stop-opacity="1" stop-color="rgb(94.244385%, 49.6521%, 40.982056%)" offset="0.8125"/><stop stop-opacity="1" stop-color="rgb(94.195557%, 49.279785%, 40.9729%)" offset="0.828125"/><stop stop-opacity="1" stop-color="rgb(94.146729%, 48.908997%, 40.962219%)" offset="0.84375"/><stop stop-opacity="1" stop-color="rgb(94.096375%, 48.536682%, 40.951538%)" offset="0.859375"/><stop stop-opacity="1" stop-color="rgb(94.047546%, 48.165894%, 40.942383%)" offset="0.875"/><stop stop-opacity="1" stop-color="rgb(93.998718%, 47.795105%, 40.931702%)" offset="0.890625"/><stop stop-opacity="1" stop-color="rgb(93.94989%, 47.422791%, 40.922546%)" offset="0.90625"/><stop stop-opacity="1" stop-color="rgb(93.899536%, 47.052002%, 40.911865%)" offset="0.921875"/><stop stop-opacity="1" stop-color="rgb(93.850708%, 46.679688%, 40.901184%)" offset="0.9375"/><stop stop-opacity="1" stop-color="rgb(93.80188%, 46.308899%, 40.892029%)" offset="0.953125"/><stop stop-opacity="1" stop-color="rgb(93.751526%, 45.93811%, 40.881348%)" offset="0.96875"/><stop stop-opacity="1" stop-color="rgb(93.702698%, 45.565796%, 40.870667%)" offset="0.984375"/><stop stop-opacity="1" stop-color="rgb(93.65387%, 45.195007%, 40.861511%)" offset="1"/></linearGradient><clipPath id="b8f5adbd57"><path d="M 17.082031 37.59375 L 582.582031 37.59375 L 582.582031 119 L 17.082031 119 Z M 17.082031 37.59375 " clip-rule="nonzero"/></clipPath><clipPath id="9baf5a2d4c"><path d="M 540.96875 37.59375 L 58.691406 37.59375 C 57.335938 37.585938 55.988281 37.648438 54.640625 37.777344 C 53.292969 37.90625 51.953125 38.101562 50.625 38.363281 C 49.296875 38.625 47.988281 38.949219 46.691406 39.339844 C 45.394531 39.730469 44.121094 40.183594 42.871094 40.703125 C 41.617188 41.21875 40.394531 41.792969 39.199219 42.433594 C 38.007812 43.070312 36.847656 43.761719 35.71875 44.515625 C 34.59375 45.265625 33.507812 46.070312 32.460938 46.929688 C 31.414062 47.789062 30.414062 48.699219 29.457031 49.65625 C 28.5 50.613281 27.589844 51.617188 26.734375 52.664062 C 25.875 53.710938 25.070312 54.800781 24.320312 55.925781 C 23.570312 57.054688 22.875 58.214844 22.238281 59.410156 C 21.601562 60.605469 21.023438 61.832031 20.507812 63.082031 C 19.992188 64.335938 19.539062 65.609375 19.148438 66.90625 C 18.761719 68.203125 18.433594 69.515625 18.171875 70.847656 C 17.914062 72.175781 17.71875 73.515625 17.589844 74.863281 C 17.460938 76.210938 17.398438 77.5625 17.402344 78.917969 L 17.402344 118.359375 L 582.257812 118.359375 L 582.257812 78.917969 C 582.261719 77.5625 582.199219 76.210938 582.070312 74.863281 C 581.941406 73.515625 581.746094 72.175781 581.488281 70.847656 C 581.226562 69.515625 580.902344 68.203125 580.511719 66.90625 C 580.121094 65.609375 579.667969 64.335938 579.152344 63.082031 C 578.636719 61.832031 578.058594 60.605469 577.421875 59.410156 C 576.785156 58.214844 576.09375 57.054688 575.339844 55.925781 C 574.589844 54.800781 573.785156 53.710938 572.925781 52.664062 C 572.070312 51.617188 571.160156 50.613281 570.203125 49.65625 C 569.246094 48.699219 568.246094 47.789062 567.199219 46.929688 C 566.152344 46.070312 565.066406 45.265625 563.941406 44.515625 C 562.8125 43.761719 561.652344 43.070312 560.460938 42.433594 C 559.265625 41.792969 558.042969 41.21875 556.789062 40.703125 C 555.539062 40.183594 554.265625 39.730469 552.96875 39.339844 C 551.671875 38.949219 550.363281 38.625 549.035156 38.363281 C 547.707031 38.101562 546.367188 37.90625 545.019531 37.777344 C 543.671875 37.648438 542.324219 37.585938 540.96875 37.59375 Z M 540.96875 37.59375 " clip-rule="nonzero"/></clipPath><linearGradient x1="24" gradientTransform="matrix(13.448928, 0, 0, 13.461537, -22.944115, -22.98509)" y1="10.500001" x2="24" gradientUnits="userSpaceOnUse" y2="4.500001" id="488735a221"><stop stop-opacity="1" stop-color="rgb(13.424683%, 19.819641%, 46.601868%)" offset="0"/><stop stop-opacity="1" stop-color="rgb(13.407898%, 19.795227%, 46.481323%)" offset="0.125"/><stop stop-opacity="1" stop-color="rgb(13.375854%, 19.746399%, 46.240234%)" offset="0.25"/><stop stop-opacity="1" stop-color="rgb(13.343811%, 19.697571%, 46.000671%)" offset="0.375"/><stop stop-opacity="1" stop-color="rgb(13.311768%, 19.648743%, 45.759583%)" offset="0.5"/><stop stop-opacity="1" stop-color="rgb(13.28125%, 19.599915%, 45.52002%)" offset="0.625"/><stop stop-opacity="1" stop-color="rgb(13.249207%, 19.551086%, 45.278931%)" offset="0.75"/><stop stop-opacity="1" stop-color="rgb(13.217163%, 19.502258%, 45.039368%)" offset="0.875"/><stop stop-opacity="1" stop-color="rgb(13.18512%, 19.45343%, 44.799805%)" offset="1"/></linearGradient><clipPath id="0bafa6179b"><path d="M 17.402344 118.359375 L 582.257812 118.359375 L 582.257812 158.746094 L 17.402344 158.746094 Z M 17.402344 118.359375 " clip-rule="nonzero"/></clipPath><linearGradient x1="24" gradientTransform="matrix(13.448928, 0, 0, 13.461537, -22.944115, -22.98509)" y1="13.500001" x2="24" gradientUnits="userSpaceOnUse" y2="10.500001" id="2b204b9450"><stop stop-opacity="1" stop-color="rgb(94.894409%, 54.548645%, 41.116333%)" offset="0"/><stop stop-opacity="1" stop-color="rgb(94.876099%, 54.408264%, 41.111755%)" offset="0.03125"/><stop stop-opacity="1" stop-color="rgb(94.839478%, 54.129028%, 41.104126%)" offset="0.0625"/><stop stop-opacity="1" stop-color="rgb(94.801331%, 53.849792%, 41.096497%)" offset="0.09375"/><stop stop-opacity="1" stop-color="rgb(94.764709%, 53.570557%, 41.088867%)" offset="0.125"/><stop stop-opacity="1" stop-color="rgb(94.728088%, 53.291321%, 41.081238%)" offset="0.15625"/><stop stop-opacity="1" stop-color="rgb(94.689941%, 53.010559%, 41.073608%)" offset="0.1875"/><stop stop-opacity="1" stop-color="rgb(94.65332%, 52.731323%, 41.065979%)" offset="0.21875"/><stop stop-opacity="1" stop-color="rgb(94.616699%, 52.452087%, 41.05835%)" offset="0.25"/><stop stop-opacity="1" stop-color="rgb(94.578552%, 52.172852%, 41.05072%)" offset="0.28125"/><stop stop-opacity="1" stop-color="rgb(94.541931%, 51.893616%, 41.043091%)" offset="0.3125"/><stop stop-opacity="1" stop-color="rgb(94.50531%, 51.61438%, 41.035461%)" offset="0.34375"/><stop stop-opacity="1" stop-color="rgb(94.468689%, 51.335144%, 41.027832%)" offset="0.375"/><stop stop-opacity="1" stop-color="rgb(94.430542%, 51.054382%, 41.020203%)" offset="0.40625"/><stop stop-opacity="1" stop-color="rgb(94.393921%, 50.775146%, 41.012573%)" offset="0.4375"/><stop stop-opacity="1" stop-color="rgb(94.3573%, 50.495911%, 41.004944%)" offset="0.46875"/><stop stop-opacity="1" stop-color="rgb(94.319153%, 50.216675%, 40.997314%)" offset="0.5"/><stop stop-opacity="1" stop-color="rgb(94.282532%, 49.937439%, 40.989685%)" offset="0.53125"/><stop stop-opacity="1" stop-color="rgb(94.245911%, 49.658203%, 40.982056%)" offset="0.5625"/><stop stop-opacity="1" stop-color="rgb(94.20929%, 49.378967%, 40.974426%)" offset="0.59375"/><stop stop-opacity="1" stop-color="rgb(94.171143%, 49.099731%, 40.966797%)" offset="0.625"/><stop stop-opacity="1" stop-color="rgb(94.134521%, 48.81897%, 40.959167%)" offset="0.65625"/><stop stop-opacity="1" stop-color="rgb(94.0979%, 48.539734%, 40.951538%)" offset="0.6875"/><stop stop-opacity="1" stop-color="rgb(94.059753%, 48.260498%, 40.943909%)" offset="0.71875"/><stop stop-opacity="1" stop-color="rgb(94.023132%, 47.981262%, 40.936279%)" offset="0.75"/><stop stop-opacity="1" stop-color="rgb(93.986511%, 47.702026%, 40.92865%)" offset="0.78125"/><stop stop-opacity="1" stop-color="rgb(93.948364%, 47.422791%, 40.921021%)" offset="0.8125"/><stop stop-opacity="1" stop-color="rgb(93.911743%, 47.143555%, 40.913391%)" offset="0.84375"/><stop stop-opacity="1" stop-color="rgb(93.875122%, 46.862793%, 40.905762%)" offset="0.875"/><stop stop-opacity="1" stop-color="rgb(93.838501%, 46.583557%, 40.898132%)" offset="0.90625"/><stop stop-opacity="1" stop-color="rgb(93.800354%, 46.304321%, 40.890503%)" offset="0.9375"/><stop stop-opacity="1" stop-color="rgb(93.763733%, 46.025085%, 40.882874%)" offset="0.96875"/><stop stop-opacity="1" stop-color="rgb(93.727112%, 45.74585%, 40.875244%)" offset="1"/></linearGradient><clipPath id="6c45491242"><path d="M 79 68 L 99 68 L 99 88 L 79 88 Z M 79 68 " clip-rule="nonzero"/></clipPath><clipPath id="ddeb274407"><path d="M 98.632812 77.976562 C 98.632812 78.621094 98.570312 79.261719 98.445312 79.894531 C 98.320312 80.527344 98.132812 81.140625 97.886719 81.738281 C 97.640625 82.332031 97.335938 82.898438 96.980469 83.4375 C 96.621094 83.972656 96.214844 84.46875 95.757812 84.925781 C 95.304688 85.382812 94.808594 85.789062 94.269531 86.148438 C 93.734375 86.503906 93.167969 86.808594 92.574219 87.054688 C 91.976562 87.300781 91.363281 87.488281 90.730469 87.613281 C 90.097656 87.742188 89.460938 87.804688 88.816406 87.804688 C 88.171875 87.804688 87.535156 87.742188 86.902344 87.613281 C 86.269531 87.488281 85.65625 87.300781 85.058594 87.054688 C 84.464844 86.808594 83.898438 86.503906 83.363281 86.148438 C 82.824219 85.789062 82.332031 85.382812 81.875 84.925781 C 81.417969 84.46875 81.011719 83.972656 80.652344 83.4375 C 80.296875 82.898438 79.992188 82.332031 79.746094 81.738281 C 79.5 81.140625 79.3125 80.527344 79.1875 79.894531 C 79.0625 79.261719 79 78.621094 79 77.976562 C 79 77.332031 79.0625 76.691406 79.1875 76.058594 C 79.3125 75.425781 79.5 74.8125 79.746094 74.214844 C 79.992188 73.621094 80.296875 73.054688 80.652344 72.515625 C 81.011719 71.980469 81.417969 71.484375 81.875 71.027344 C 82.332031 70.570312 82.824219 70.164062 83.363281 69.804688 C 83.898438 69.445312 84.464844 69.144531 85.058594 68.898438 C 85.65625 68.652344 86.269531 68.464844 86.902344 68.339844 C 87.535156 68.210938 88.171875 68.148438 88.816406 68.148438 C 89.460938 68.148438 90.097656 68.210938 90.730469 68.339844 C 91.363281 68.464844 91.976562 68.652344 92.574219 68.898438 C 93.167969 69.144531 93.734375 69.445312 94.269531 69.804688 C 94.808594 70.164062 95.304688 70.570312 95.757812 71.027344 C 96.214844 71.484375 96.621094 71.980469 96.980469 72.515625 C 97.335938 73.054688 97.640625 73.621094 97.886719 74.214844 C 98.132812 74.8125 98.320312 75.425781 98.445312 76.058594 C 98.570312 76.691406 98.632812 77.332031 98.632812 77.976562 Z M 98.632812 77.976562 " clip-rule="nonzero"/></clipPath><linearGradient x1="8.31" gradientTransform="matrix(13.448928, 0, 0, 13.461537, -22.944115, -22.98509)" y1="8.23" x2="8.31" gradientUnits="userSpaceOnUse" y2="6.770001" id="5cae08a58d"><stop stop-opacity="1" stop-color="rgb(95.298767%, 67.10968%, 44.384766%)" offset="0"/><stop stop-opacity="1" stop-color="rgb(95.298767%, 67.007446%, 44.351196%)" offset="0.0625"/><stop stop-opacity="1" stop-color="rgb(95.298767%, 66.804504%, 44.282532%)" offset="0.125"/><stop stop-opacity="1" stop-color="rgb(95.298767%, 66.601562%, 44.215393%)" offset="0.1875"/><stop stop-opacity="1" stop-color="rgb(95.298767%, 66.398621%, 44.146729%)" offset="0.25"/><stop stop-opacity="1" stop-color="rgb(95.298767%, 66.194153%, 44.078064%)" offset="0.3125"/><stop stop-opacity="1" stop-color="rgb(95.298767%, 65.991211%, 44.010925%)" offset="0.375"/><stop stop-opacity="1" stop-color="rgb(95.298767%, 65.788269%, 43.942261%)" offset="0.4375"/><stop stop-opacity="1" stop-color="rgb(95.298767%, 65.585327%, 43.875122%)" offset="0.5"/><stop stop-opacity="1" stop-color="rgb(95.298767%, 65.382385%, 43.806458%)" offset="0.5625"/><stop stop-opacity="1" stop-color="rgb(95.298767%, 65.179443%, 43.739319%)" offset="0.625"/><stop stop-opacity="1" stop-color="rgb(95.298767%, 64.976501%, 43.670654%)" offset="0.6875"/><stop stop-opacity="1" stop-color="rgb(95.298767%, 64.77356%, 43.60199%)" offset="0.75"/><stop stop-opacity="1" stop-color="rgb(95.298767%, 64.570618%, 43.534851%)" offset="0.8125"/><stop stop-opacity="1" stop-color="rgb(95.298767%, 64.367676%, 43.466187%)" offset="0.875"/><stop stop-opacity="1" stop-color="rgb(95.298767%, 64.164734%, 43.399048%)" offset="0.9375"/><stop stop-opacity="1" stop-color="rgb(95.298767%, 63.961792%, 43.330383%)" offset="1"/></linearGradient><clipPath id="c8c25f927d"><path d="M 128 68 L 149 68 L 149 88 L 128 88 Z M 128 68 " clip-rule="nonzero"/></clipPath><clipPath id="78ef1407e6"><path d="M 148.261719 77.976562 C 148.261719 78.621094 148.199219 79.261719 148.070312 79.894531 C 147.945312 80.527344 147.761719 81.140625 147.511719 81.738281 C 147.265625 82.332031 146.964844 82.898438 146.605469 83.4375 C 146.246094 83.972656 145.839844 84.46875 145.386719 84.925781 C 144.929688 85.382812 144.433594 85.789062 143.898438 86.148438 C 143.363281 86.503906 142.796875 86.808594 142.199219 87.054688 C 141.605469 87.300781 140.992188 87.488281 140.359375 87.613281 C 139.726562 87.742188 139.085938 87.804688 138.441406 87.804688 C 137.796875 87.804688 137.160156 87.742188 136.527344 87.613281 C 135.894531 87.488281 135.28125 87.300781 134.6875 87.054688 C 134.089844 86.808594 133.523438 86.503906 132.988281 86.148438 C 132.453125 85.789062 131.957031 85.382812 131.5 84.925781 C 131.046875 84.46875 130.636719 83.972656 130.28125 83.4375 C 129.921875 82.898438 129.621094 82.332031 129.371094 81.738281 C 129.125 81.140625 128.941406 80.527344 128.8125 79.894531 C 128.6875 79.261719 128.625 78.621094 128.625 77.976562 C 128.625 77.332031 128.6875 76.691406 128.8125 76.058594 C 128.941406 75.425781 129.125 74.8125 129.371094 74.214844 C 129.621094 73.621094 129.921875 73.054688 130.28125 72.515625 C 130.636719 71.980469 131.046875 71.484375 131.5 71.027344 C 131.957031 70.570312 132.453125 70.164062 132.988281 69.804688 C 133.523438 69.445312 134.089844 69.144531 134.6875 68.898438 C 135.28125 68.652344 135.894531 68.464844 136.527344 68.339844 C 137.160156 68.210938 137.796875 68.148438 138.441406 68.148438 C 139.085938 68.148438 139.726562 68.210938 140.359375 68.339844 C 140.992188 68.464844 141.605469 68.652344 142.199219 68.898438 C 142.796875 69.144531 143.363281 69.445312 143.898438 69.804688 C 144.433594 70.164062 144.929688 70.570312 145.386719 71.027344 C 145.839844 71.484375 146.246094 71.980469 146.605469 72.515625 C 146.964844 73.054688 147.265625 73.621094 147.511719 74.214844 C 147.761719 74.8125 147.945312 75.425781 148.070312 76.058594 C 148.199219 76.691406 148.261719 77.332031 148.261719 77.976562 Z M 148.261719 77.976562 " clip-rule="nonzero"/></clipPath><linearGradient x1="12" gradientTransform="matrix(13.448928, 0, 0, 13.461537, -22.944115, -22.98509)" y1="8.23" x2="12" gradientUnits="userSpaceOnUse" y2="6.770001" id="d75fac8c89"><stop stop-opacity="1" stop-color="rgb(8.425903%, 78.190613%, 89.730835%)" offset="0"/><stop stop-opacity="1" stop-color="rgb(8.357239%, 78.057861%, 89.756775%)" offset="0.0625"/><stop stop-opacity="1" stop-color="rgb(8.221436%, 77.79541%, 89.810181%)" offset="0.125"/><stop stop-opacity="1" stop-color="rgb(8.084106%, 77.531433%, 89.862061%)" offset="0.1875"/><stop stop-opacity="1" stop-color="rgb(7.946777%, 77.268982%, 89.91394%)" offset="0.25"/><stop stop-opacity="1" stop-color="rgb(7.810974%, 77.005005%, 89.967346%)" offset="0.3125"/><stop stop-opacity="1" stop-color="rgb(7.673645%, 76.742554%, 90.019226%)" offset="0.375"/><stop stop-opacity="1" stop-color="rgb(7.536316%, 76.478577%, 90.072632%)" offset="0.4375"/><stop stop-opacity="1" stop-color="rgb(7.398987%, 76.216125%, 90.124512%)" offset="0.5"/><stop stop-opacity="1" stop-color="rgb(7.263184%, 75.952148%, 90.176392%)" offset="0.5625"/><stop stop-opacity="1" stop-color="rgb(7.125854%, 75.689697%, 90.229797%)" offset="0.625"/><stop stop-opacity="1" stop-color="rgb(6.988525%, 75.42572%, 90.281677%)" offset="0.6875"/><stop stop-opacity="1" stop-color="rgb(6.851196%, 75.163269%, 90.333557%)" offset="0.75"/><stop stop-opacity="1" stop-color="rgb(6.715393%, 74.900818%, 90.386963%)" offset="0.8125"/><stop stop-opacity="1" stop-color="rgb(6.578064%, 74.636841%, 90.438843%)" offset="0.875"/><stop stop-opacity="1" stop-color="rgb(6.440735%, 74.37439%, 90.490723%)" offset="0.9375"/><stop stop-opacity="1" stop-color="rgb(6.303406%, 74.110413%, 90.544128%)" offset="1"/></linearGradient><clipPath id="b1c982fcab"><path d="M 178 68 L 198 68 L 198 88 L 178 88 Z M 178 68 " clip-rule="nonzero"/></clipPath><clipPath id="21f8878bb3"><path d="M 197.886719 77.976562 C 197.886719 78.621094 197.824219 79.261719 197.699219 79.894531 C 197.574219 80.527344 197.386719 81.140625 197.140625 81.738281 C 196.894531 82.332031 196.589844 82.898438 196.234375 83.4375 C 195.875 83.972656 195.46875 84.46875 195.011719 84.925781 C 194.554688 85.382812 194.058594 85.789062 193.523438 86.148438 C 192.988281 86.503906 192.421875 86.808594 191.828125 87.054688 C 191.230469 87.300781 190.617188 87.488281 189.984375 87.613281 C 189.351562 87.742188 188.714844 87.804688 188.070312 87.804688 C 187.425781 87.804688 186.785156 87.742188 186.152344 87.613281 C 185.523438 87.488281 184.90625 87.300781 184.3125 87.054688 C 183.71875 86.808594 183.152344 86.503906 182.613281 86.148438 C 182.078125 85.789062 181.582031 85.382812 181.128906 84.925781 C 180.671875 84.46875 180.265625 83.972656 179.90625 83.4375 C 179.546875 82.898438 179.246094 82.332031 179 81.738281 C 178.753906 81.140625 178.566406 80.527344 178.441406 79.894531 C 178.316406 79.261719 178.25 78.621094 178.25 77.976562 C 178.25 77.332031 178.316406 76.691406 178.441406 76.058594 C 178.566406 75.425781 178.753906 74.8125 179 74.214844 C 179.246094 73.621094 179.546875 73.054688 179.90625 72.515625 C 180.265625 71.980469 180.671875 71.484375 181.128906 71.027344 C 181.582031 70.570312 182.078125 70.164062 182.613281 69.804688 C 183.152344 69.445312 183.71875 69.144531 184.3125 68.898438 C 184.90625 68.652344 185.523438 68.464844 186.152344 68.339844 C 186.785156 68.210938 187.425781 68.148438 188.070312 68.148438 C 188.714844 68.148438 189.351562 68.210938 189.984375 68.339844 C 190.617188 68.464844 191.230469 68.652344 191.828125 68.898438 C 192.421875 69.144531 192.988281 69.445312 193.523438 69.804688 C 194.058594 70.164062 194.554688 70.570312 195.011719 71.027344 C 195.46875 71.484375 195.875 71.980469 196.234375 72.515625 C 196.589844 73.054688 196.894531 73.621094 197.140625 74.214844 C 197.386719 74.8125 197.574219 75.425781 197.699219 76.058594 C 197.824219 76.691406 197.886719 77.332031 197.886719 77.976562 Z M 197.886719 77.976562 " clip-rule="nonzero"/></clipPath><linearGradient x1="15.69" gradientTransform="matrix(13.448928, 0, 0, 13.461537, -22.944115, -22.98509)" y1="8.23" x2="15.69" gradientUnits="userSpaceOnUse" y2="6.770001" id="eba89bc85a"><stop stop-opacity="1" stop-color="rgb(90.25116%, 94.442749%, 95.222473%)" offset="0"/><stop stop-opacity="1" stop-color="rgb(90.055847%, 94.33136%, 95.126343%)" offset="0.125"/><stop stop-opacity="1" stop-color="rgb(89.668274%, 94.110107%, 94.937134%)" offset="0.25"/><stop stop-opacity="1" stop-color="rgb(89.279175%, 93.888855%, 94.746399%)" offset="0.375"/><stop stop-opacity="1" stop-color="rgb(88.890076%, 93.667603%, 94.555664%)" offset="0.5"/><stop stop-opacity="1" stop-color="rgb(88.502502%, 93.44635%, 94.364929%)" offset="0.625"/><stop stop-opacity="1" stop-color="rgb(88.113403%, 93.223572%, 94.17572%)" offset="0.75"/><stop stop-opacity="1" stop-color="rgb(87.72583%, 93.002319%, 93.984985%)" offset="0.875"/><stop stop-opacity="1" stop-color="rgb(87.336731%, 92.781067%, 93.79425%)" offset="1"/></linearGradient><clipPath id="a291329d18"><path d="M 243 238 L 357 238 L 357 443 L 243 443 Z M 243 238 " clip-rule="nonzero"/></clipPath><clipPath id="7e6b2555d5"><path d="M 248.992188 441.4375 C 248.402344 441.144531 247.847656 440.796875 247.328125 440.394531 C 246.804688 439.992188 246.328125 439.539062 245.894531 439.042969 C 245.460938 438.546875 245.078125 438.015625 244.75 437.441406 C 244.421875 436.871094 244.148438 436.273438 243.9375 435.648438 C 243.726562 435.023438 243.578125 434.386719 243.488281 433.734375 C 243.402344 433.078125 243.378906 432.421875 243.421875 431.765625 C 243.460938 431.105469 243.566406 430.460938 243.734375 429.820312 C 243.902344 429.183594 244.132812 428.570312 244.421875 427.976562 L 337.21875 243.957031 C 337.511719 243.367188 337.859375 242.808594 338.261719 242.289062 C 338.664062 241.765625 339.113281 241.289062 339.613281 240.859375 C 340.109375 240.425781 340.644531 240.046875 341.21875 239.722656 C 341.789062 239.394531 342.390625 239.128906 343.015625 238.921875 C 343.640625 238.714844 344.28125 238.574219 344.933594 238.496094 C 345.589844 238.414062 346.242188 238.402344 346.902344 238.449219 C 347.558594 238.503906 348.203125 238.617188 348.835938 238.796875 C 349.46875 238.976562 350.082031 239.214844 350.667969 239.515625 C 351.257812 239.808594 351.8125 240.15625 352.335938 240.558594 C 352.855469 240.960938 353.332031 241.414062 353.765625 241.910156 C 354.199219 242.40625 354.582031 242.9375 354.910156 243.511719 C 355.238281 244.082031 355.511719 244.679688 355.722656 245.304688 C 355.933594 245.925781 356.082031 246.566406 356.171875 247.21875 C 356.257812 247.875 356.28125 248.53125 356.238281 249.1875 C 356.199219 249.847656 356.09375 250.492188 355.925781 251.132812 C 355.757812 251.769531 355.527344 252.382812 355.238281 252.976562 L 262.441406 436.996094 C 262.148438 437.585938 261.800781 438.140625 261.398438 438.664062 C 260.996094 439.1875 260.546875 439.664062 260.046875 440.09375 C 259.550781 440.527344 259.015625 440.90625 258.441406 441.230469 C 257.871094 441.558594 257.269531 441.824219 256.644531 442.03125 C 256.019531 442.234375 255.378906 442.378906 254.726562 442.457031 C 254.070312 442.539062 253.417969 442.550781 252.761719 442.5 C 252.101562 442.449219 251.457031 442.335938 250.824219 442.15625 C 250.191406 441.976562 249.578125 441.738281 248.992188 441.4375 Z M 248.992188 441.4375 " clip-rule="nonzero"/></clipPath><linearGradient x1="23.58" gradientTransform="matrix(11.969545, 6.057692, -6.589975, 13.057692, 198.15628, -162.58122)" y1="35.518375" x2="23.58" gradientUnits="userSpaceOnUse" y2="19.579061" id="4030f96725"><stop stop-opacity="1" stop-color="rgb(100%, 100%, 100%)" offset="0"/><stop stop-opacity="1" stop-color="rgb(100%, 100%, 100%)" offset="0.5"/><stop stop-opacity="1" stop-color="rgb(100%, 100%, 100%)" offset="0.75"/><stop stop-opacity="1" stop-color="rgb(100%, 100%, 100%)" offset="0.875"/><stop stop-opacity="1" stop-color="rgb(99.960327%, 99.977112%, 99.980164%)" offset="0.890625"/><stop stop-opacity="1" stop-color="rgb(99.754333%, 99.859619%, 99.879456%)" offset="0.90625"/><stop stop-opacity="1" stop-color="rgb(99.420166%, 99.668884%, 99.714661%)" offset="0.921875"/><stop stop-opacity="1" stop-color="rgb(99.084473%, 99.478149%, 99.551392%)" offset="0.9375"/><stop stop-opacity="1" stop-color="rgb(98.750305%, 99.287415%, 99.386597%)" offset="0.953125"/><stop stop-opacity="1" stop-color="rgb(98.416138%, 99.09668%, 99.223328%)" offset="0.96875"/><stop stop-opacity="1" stop-color="rgb(98.080444%, 98.905945%, 99.058533%)" offset="0.984375"/><stop stop-opacity="1" stop-color="rgb(97.746277%, 98.71521%, 98.895264%)" offset="1"/></linearGradient><clipPath id="0dc501d952"><path d="M 98 340 L 223 340 L 223 562.59375 L 98 562.59375 Z M 98 340 " clip-rule="nonzero"/></clipPath><clipPath id="0db065a32e"><path d="M 222.363281 562.589844 L 98.363281 562.589844 L 98.363281 340.476562 L 222.363281 424.207031 Z M 222.363281 562.589844 " clip-rule="nonzero"/></clipPath><linearGradient x1="13.63" gradientTransform="matrix(13.448928, 0, 0, 13.461537, -22.944115, -22.98509)" y1="43.500001" x2="13.63" gradientUnits="userSpaceOnUse" y2="27.000001" id="aaf1cac242"><stop stop-opacity="1" stop-color="rgb(93.919373%, 47.193909%, 40.916443%)" offset="0"/><stop stop-opacity="1" stop-color="rgb(93.894958%, 47.015381%, 40.910339%)" offset="0.015625"/><stop stop-opacity="1" stop-color="rgb(93.847656%, 46.659851%, 40.901184%)" offset="0.03125"/><stop stop-opacity="1" stop-color="rgb(93.800354%, 46.304321%, 40.892029%)" offset="0.046875"/><stop stop-opacity="1" stop-color="rgb(93.753052%, 45.947266%, 40.881348%)" offset="0.0625"/><stop stop-opacity="1" stop-color="rgb(93.70575%, 45.591736%, 40.872192%)" offset="0.078125"/><stop stop-opacity="1" stop-color="rgb(93.658447%, 45.236206%, 40.863037%)" offset="0.09375"/><stop stop-opacity="1" stop-color="rgb(93.611145%, 44.880676%, 40.852356%)" offset="0.109375"/><stop stop-opacity="1" stop-color="rgb(93.563843%, 44.523621%, 40.843201%)" offset="0.125"/><stop stop-opacity="1" stop-color="rgb(93.516541%, 44.168091%, 40.834045%)" offset="0.140625"/><stop stop-opacity="1" stop-color="rgb(93.469238%, 43.812561%, 40.823364%)" offset="0.15625"/><stop stop-opacity="1" stop-color="rgb(93.421936%, 43.457031%, 40.814209%)" offset="0.171875"/><stop stop-opacity="1" stop-color="rgb(93.374634%, 43.099976%, 40.805054%)" offset="0.1875"/><stop stop-opacity="1" stop-color="rgb(93.328857%, 42.744446%, 40.794373%)" offset="0.203125"/><stop stop-opacity="1" stop-color="rgb(93.281555%, 42.388916%, 40.785217%)" offset="0.21875"/><stop stop-opacity="1" stop-color="rgb(93.234253%, 42.033386%, 40.776062%)" offset="0.234375"/><stop stop-opacity="1" stop-color="rgb(93.186951%, 41.677856%, 40.765381%)" offset="0.25"/><stop stop-opacity="1" stop-color="rgb(93.139648%, 41.320801%, 40.756226%)" offset="0.265625"/><stop stop-opacity="1" stop-color="rgb(93.092346%, 40.965271%, 40.74707%)" offset="0.28125"/><stop stop-opacity="1" stop-color="rgb(93.045044%, 40.609741%, 40.736389%)" offset="0.296875"/><stop stop-opacity="1" stop-color="rgb(92.997742%, 40.254211%, 40.727234%)" offset="0.3125"/><stop stop-opacity="1" stop-color="rgb(92.950439%, 39.897156%, 40.716553%)" offset="0.328125"/><stop stop-opacity="1" stop-color="rgb(92.903137%, 39.541626%, 40.707397%)" offset="0.34375"/><stop stop-opacity="1" stop-color="rgb(92.855835%, 39.186096%, 40.698242%)" offset="0.359375"/><stop stop-opacity="1" stop-color="rgb(92.808533%, 38.830566%, 40.687561%)" offset="0.375"/><stop stop-opacity="1" stop-color="rgb(92.76123%, 38.473511%, 40.678406%)" offset="0.390625"/><stop stop-opacity="1" stop-color="rgb(92.713928%, 38.117981%, 40.66925%)" offset="0.40625"/><stop stop-opacity="1" stop-color="rgb(92.666626%, 37.762451%, 40.658569%)" offset="0.421875"/><stop stop-opacity="1" stop-color="rgb(92.619324%, 37.406921%, 40.649414%)" offset="0.4375"/><stop stop-opacity="1" stop-color="rgb(92.572021%, 37.049866%, 40.640259%)" offset="0.453125"/><stop stop-opacity="1" stop-color="rgb(92.526245%, 36.694336%, 40.629578%)" offset="0.46875"/><stop stop-opacity="1" stop-color="rgb(92.478943%, 36.338806%, 40.620422%)" offset="0.484375"/><stop stop-opacity="1" stop-color="rgb(92.431641%, 35.983276%, 40.611267%)" offset="0.5"/><stop stop-opacity="1" stop-color="rgb(92.384338%, 35.626221%, 40.600586%)" offset="0.515625"/><stop stop-opacity="1" stop-color="rgb(92.337036%, 35.270691%, 40.591431%)" offset="0.53125"/><stop stop-opacity="1" stop-color="rgb(92.289734%, 34.915161%, 40.582275%)" offset="0.546875"/><stop stop-opacity="1" stop-color="rgb(92.242432%, 34.559631%, 40.571594%)" offset="0.5625"/><stop stop-opacity="1" stop-color="rgb(92.195129%, 34.204102%, 40.562439%)" offset="0.578125"/><stop stop-opacity="1" stop-color="rgb(92.147827%, 33.847046%, 40.553284%)" offset="0.59375"/><stop stop-opacity="1" stop-color="rgb(92.100525%, 33.491516%, 40.542603%)" offset="0.609375"/><stop stop-opacity="1" stop-color="rgb(92.053223%, 33.135986%, 40.533447%)" offset="0.625"/><stop stop-opacity="1" stop-color="rgb(92.00592%, 32.780457%, 40.524292%)" offset="0.640625"/><stop stop-opacity="1" stop-color="rgb(91.958618%, 32.423401%, 40.513611%)" offset="0.65625"/><stop stop-opacity="1" stop-color="rgb(91.911316%, 32.067871%, 40.504456%)" offset="0.671875"/><stop stop-opacity="1" stop-color="rgb(91.864014%, 31.712341%, 40.4953%)" offset="0.6875"/><stop stop-opacity="1" stop-color="rgb(91.816711%, 31.356812%, 40.484619%)" offset="0.703125"/><stop stop-opacity="1" stop-color="rgb(91.769409%, 30.999756%, 40.475464%)" offset="0.71875"/><stop stop-opacity="1" stop-color="rgb(91.723633%, 30.644226%, 40.464783%)" offset="0.734375"/><stop stop-opacity="1" stop-color="rgb(91.676331%, 30.288696%, 40.455627%)" offset="0.75"/><stop stop-opacity="1" stop-color="rgb(91.629028%, 29.933167%, 40.446472%)" offset="0.765625"/><stop stop-opacity="1" stop-color="rgb(91.581726%, 29.576111%, 40.435791%)" offset="0.78125"/><stop stop-opacity="1" stop-color="rgb(91.534424%, 29.220581%, 40.426636%)" offset="0.796875"/><stop stop-opacity="1" stop-color="rgb(91.487122%, 28.865051%, 40.41748%)" offset="0.8125"/><stop stop-opacity="1" stop-color="rgb(91.439819%, 28.509521%, 40.406799%)" offset="0.828125"/><stop stop-opacity="1" stop-color="rgb(91.407776%, 28.265381%, 40.400696%)" offset="0.84375"/><stop stop-opacity="1" stop-color="rgb(91.398621%, 28.199768%, 40.39917%)" offset="0.875"/><stop stop-opacity="1" stop-color="rgb(91.398621%, 28.199768%, 40.39917%)" offset="1"/></linearGradient><clipPath id="5cbcfe8d52"><path d="M 379 340 L 504 340 L 504 562.59375 L 379 562.59375 Z M 379 340 " clip-rule="nonzero"/></clipPath><clipPath id="da3fb6a77c"><path d="M 379.042969 562.589844 L 503.042969 562.589844 L 503.042969 340.476562 L 379.042969 424.207031 Z M 379.042969 562.589844 " clip-rule="nonzero"/></clipPath><linearGradient x1="26.76" gradientTransform="matrix(-13.448928, 0, 0, 13.461537, 800.937189, -22.98509)" y1="43.500001" x2="26.76" gradientUnits="userSpaceOnUse" y2="27.000001" id="a70a9b066e"><stop stop-opacity="1" stop-color="rgb(93.919373%, 47.193909%, 40.916443%)" offset="0"/><stop stop-opacity="1" stop-color="rgb(93.894958%, 47.015381%, 40.910339%)" offset="0.015625"/><stop stop-opacity="1" stop-color="rgb(93.847656%, 46.659851%, 40.901184%)" offset="0.03125"/><stop stop-opacity="1" stop-color="rgb(93.800354%, 46.304321%, 40.892029%)" offset="0.046875"/><stop stop-opacity="1" stop-color="rgb(93.753052%, 45.947266%, 40.881348%)" offset="0.0625"/><stop stop-opacity="1" stop-color="rgb(93.70575%, 45.591736%, 40.872192%)" offset="0.078125"/><stop stop-opacity="1" stop-color="rgb(93.658447%, 45.236206%, 40.863037%)" offset="0.09375"/><stop stop-opacity="1" stop-color="rgb(93.611145%, 44.880676%, 40.852356%)" offset="0.109375"/><stop stop-opacity="1" stop-color="rgb(93.563843%, 44.523621%, 40.843201%)" offset="0.125"/><stop stop-opacity="1" stop-color="rgb(93.516541%, 44.168091%, 40.834045%)" offset="0.140625"/><stop stop-opacity="1" stop-color="rgb(93.469238%, 43.812561%, 40.823364%)" offset="0.15625"/><stop stop-opacity="1" stop-color="rgb(93.421936%, 43.457031%, 40.814209%)" offset="0.171875"/><stop stop-opacity="1" stop-color="rgb(93.374634%, 43.099976%, 40.805054%)" offset="0.1875"/><stop stop-opacity="1" stop-color="rgb(93.328857%, 42.744446%, 40.794373%)" offset="0.203125"/><stop stop-opacity="1" stop-color="rgb(93.281555%, 42.388916%, 40.785217%)" offset="0.21875"/><stop stop-opacity="1" stop-color="rgb(93.234253%, 42.033386%, 40.776062%)" offset="0.234375"/><stop stop-opacity="1" stop-color="rgb(93.186951%, 41.677856%, 40.765381%)" offset="0.25"/><stop stop-opacity="1" stop-color="rgb(93.139648%, 41.320801%, 40.756226%)" offset="0.265625"/><stop stop-opacity="1" stop-color="rgb(93.092346%, 40.965271%, 40.74707%)" offset="0.28125"/><stop stop-opacity="1" stop-color="rgb(93.045044%, 40.609741%, 40.736389%)" offset="0.296875"/><stop stop-opacity="1" stop-color="rgb(92.997742%, 40.254211%, 40.727234%)" offset="0.3125"/><stop stop-opacity="1" stop-color="rgb(92.950439%, 39.897156%, 40.716553%)" offset="0.328125"/><stop stop-opacity="1" stop-color="rgb(92.903137%, 39.541626%, 40.707397%)" offset="0.34375"/><stop stop-opacity="1" stop-color="rgb(92.855835%, 39.186096%, 40.698242%)" offset="0.359375"/><stop stop-opacity="1" stop-color="rgb(92.808533%, 38.830566%, 40.687561%)" offset="0.375"/><stop stop-opacity="1" stop-color="rgb(92.76123%, 38.473511%, 40.678406%)" offset="0.390625"/><stop stop-opacity="1" stop-color="rgb(92.713928%, 38.117981%, 40.66925%)" offset="0.40625"/><stop stop-opacity="1" stop-color="rgb(92.666626%, 37.762451%, 40.658569%)" offset="0.421875"/><stop stop-opacity="1" stop-color="rgb(92.619324%, 37.406921%, 40.649414%)" offset="0.4375"/><stop stop-opacity="1" stop-color="rgb(92.572021%, 37.049866%, 40.640259%)" offset="0.453125"/><stop stop-opacity="1" stop-color="rgb(92.526245%, 36.694336%, 40.629578%)" offset="0.46875"/><stop stop-opacity="1" stop-color="rgb(92.478943%, 36.338806%, 40.620422%)" offset="0.484375"/><stop stop-opacity="1" stop-color="rgb(92.431641%, 35.983276%, 40.611267%)" offset="0.5"/><stop stop-opacity="1" stop-color="rgb(92.384338%, 35.626221%, 40.600586%)" offset="0.515625"/><stop stop-opacity="1" stop-color="rgb(92.337036%, 35.270691%, 40.591431%)" offset="0.53125"/><stop stop-opacity="1" stop-color="rgb(92.289734%, 34.915161%, 40.582275%)" offset="0.546875"/><stop stop-opacity="1" stop-color="rgb(92.242432%, 34.559631%, 40.571594%)" offset="0.5625"/><stop stop-opacity="1" stop-color="rgb(92.195129%, 34.204102%, 40.562439%)" offset="0.578125"/><stop stop-opacity="1" stop-color="rgb(92.147827%, 33.847046%, 40.553284%)" offset="0.59375"/><stop stop-opacity="1" stop-color="rgb(92.100525%, 33.491516%, 40.542603%)" offset="0.609375"/><stop stop-opacity="1" stop-color="rgb(92.053223%, 33.135986%, 40.533447%)" offset="0.625"/><stop stop-opacity="1" stop-color="rgb(92.00592%, 32.780457%, 40.524292%)" offset="0.640625"/><stop stop-opacity="1" stop-color="rgb(91.958618%, 32.423401%, 40.513611%)" offset="0.65625"/><stop stop-opacity="1" stop-color="rgb(91.911316%, 32.067871%, 40.504456%)" offset="0.671875"/><stop stop-opacity="1" stop-color="rgb(91.864014%, 31.712341%, 40.4953%)" offset="0.6875"/><stop stop-opacity="1" stop-color="rgb(91.816711%, 31.356812%, 40.484619%)" offset="0.703125"/><stop stop-opacity="1" stop-color="rgb(91.769409%, 30.999756%, 40.475464%)" offset="0.71875"/><stop stop-opacity="1" stop-color="rgb(91.723633%, 30.644226%, 40.464783%)" offset="0.734375"/><stop stop-opacity="1" stop-color="rgb(91.676331%, 30.288696%, 40.455627%)" offset="0.75"/><stop stop-opacity="1" stop-color="rgb(91.629028%, 29.933167%, 40.446472%)" offset="0.765625"/><stop stop-opacity="1" stop-color="rgb(91.581726%, 29.576111%, 40.435791%)" offset="0.78125"/><stop stop-opacity="1" stop-color="rgb(91.534424%, 29.220581%, 40.426636%)" offset="0.796875"/><stop stop-opacity="1" stop-color="rgb(91.487122%, 28.865051%, 40.41748%)" offset="0.8125"/><stop stop-opacity="1" stop-color="rgb(91.439819%, 28.509521%, 40.406799%)" offset="0.828125"/><stop stop-opacity="1" stop-color="rgb(91.407776%, 28.265381%, 40.400696%)" offset="0.84375"/><stop stop-opacity="1" stop-color="rgb(91.398621%, 28.199768%, 40.39917%)" offset="0.875"/><stop stop-opacity="1" stop-color="rgb(91.398621%, 28.199768%, 40.39917%)" offset="1"/></linearGradient><clipPath id="c74399353b"><path d="M 98 236 L 223 236 L 223 445 L 98 445 Z M 98 236 " clip-rule="nonzero"/></clipPath><clipPath id="1b004ad3a8"><path d="M 202.191406 444.398438 C 200.867188 444.402344 199.554688 444.273438 198.253906 444.015625 C 196.957031 443.757812 195.695312 443.375 194.46875 442.867188 C 193.246094 442.359375 192.085938 441.734375 190.984375 440.996094 C 189.886719 440.257812 188.867188 439.417969 187.933594 438.476562 L 104.28125 354.746094 C 103.820312 354.277344 103.382812 353.785156 102.964844 353.273438 C 102.550781 352.757812 102.164062 352.226562 101.800781 351.679688 C 101.4375 351.128906 101.101562 350.5625 100.792969 349.976562 C 100.484375 349.394531 100.207031 348.796875 99.957031 348.1875 C 99.707031 347.578125 99.484375 346.957031 99.296875 346.324219 C 99.105469 345.691406 98.949219 345.054688 98.820312 344.40625 C 98.695312 343.757812 98.597656 343.105469 98.535156 342.449219 C 98.46875 341.792969 98.4375 341.136719 98.4375 340.476562 C 98.4375 339.816406 98.46875 339.160156 98.535156 338.503906 C 98.597656 337.847656 98.695312 337.195312 98.820312 336.546875 C 98.949219 335.898438 99.105469 335.261719 99.296875 334.628906 C 99.484375 333.996094 99.707031 333.375 99.957031 332.765625 C 100.207031 332.15625 100.484375 331.558594 100.792969 330.976562 C 101.101562 330.390625 101.4375 329.824219 101.800781 329.273438 C 102.164062 328.726562 102.550781 328.191406 102.964844 327.679688 C 103.382812 327.167969 103.820312 326.675781 104.28125 326.207031 L 187.933594 242.476562 C 188.402344 242.007812 188.894531 241.566406 189.40625 241.148438 C 189.921875 240.726562 190.453125 240.335938 191.003906 239.96875 C 191.554688 239.601562 192.121094 239.261719 192.707031 238.953125 C 193.292969 238.640625 193.890625 238.359375 194.5 238.105469 C 195.113281 237.855469 195.738281 237.632812 196.371094 237.441406 C 197.003906 237.253906 197.644531 237.09375 198.296875 236.964844 C 198.945312 236.835938 199.597656 236.742188 200.257812 236.679688 C 200.917969 236.613281 201.578125 236.585938 202.238281 236.585938 C 202.898438 236.585938 203.558594 236.621094 204.21875 236.6875 C 204.878906 236.753906 205.53125 236.851562 206.179688 236.984375 C 206.828125 237.113281 207.46875 237.277344 208.101562 237.46875 C 208.734375 237.664062 209.355469 237.890625 209.96875 238.144531 C 210.578125 238.398438 211.175781 238.683594 211.757812 238.996094 C 212.34375 239.308594 212.90625 239.652344 213.457031 240.019531 C 214.007812 240.390625 214.535156 240.785156 215.046875 241.207031 C 215.558594 241.628906 216.046875 242.074219 216.515625 242.542969 C 216.980469 243.011719 217.421875 243.503906 217.84375 244.019531 C 218.261719 244.53125 218.652344 245.0625 219.019531 245.613281 C 219.386719 246.167969 219.726562 246.734375 220.035156 247.320312 C 220.347656 247.90625 220.628906 248.503906 220.878906 249.117188 C 221.132812 249.730469 221.351562 250.351562 221.542969 250.988281 C 221.734375 251.621094 221.894531 252.261719 222.019531 252.914062 C 222.148438 253.5625 222.242188 254.21875 222.308594 254.878906 C 222.371094 255.539062 222.402344 256.199219 222.398438 256.859375 C 222.398438 257.523438 222.363281 258.183594 222.296875 258.84375 C 222.230469 259.503906 222.132812 260.15625 222 260.804688 C 221.871094 261.457031 221.707031 262.097656 221.515625 262.730469 C 221.320312 263.363281 221.097656 263.984375 220.84375 264.597656 C 220.589844 265.210938 220.304688 265.804688 219.992188 266.390625 C 219.675781 266.972656 219.335938 267.539062 218.96875 268.089844 C 218.597656 268.640625 218.203125 269.171875 217.78125 269.683594 C 217.359375 270.191406 216.914062 270.683594 216.445312 271.148438 L 147.050781 340.476562 L 216.445312 409.804688 C 217.144531 410.511719 217.785156 411.261719 218.371094 412.0625 C 218.953125 412.863281 219.480469 413.703125 219.941406 414.582031 C 220.40625 415.457031 220.800781 416.363281 221.132812 417.300781 C 221.460938 418.234375 221.722656 419.191406 221.914062 420.164062 C 222.105469 421.136719 222.222656 422.121094 222.269531 423.113281 C 222.316406 424.101562 222.292969 425.09375 222.195312 426.078125 C 222.09375 427.066406 221.925781 428.042969 221.6875 429.003906 C 221.445312 429.96875 221.136719 430.90625 220.757812 431.824219 C 220.378906 432.742188 219.9375 433.625 219.429688 434.480469 C 218.921875 435.332031 218.355469 436.140625 217.730469 436.910156 C 217.105469 437.679688 216.425781 438.398438 215.695312 439.070312 C 214.960938 439.738281 214.1875 440.351562 213.367188 440.910156 C 212.542969 441.464844 211.6875 441.957031 210.792969 442.386719 C 209.902344 442.820312 208.980469 443.183594 208.035156 443.476562 C 207.089844 443.773438 206.125 444 205.148438 444.152344 C 204.167969 444.308594 203.183594 444.390625 202.191406 444.398438 Z M 202.191406 444.398438 " clip-rule="nonzero"/></clipPath><linearGradient x1="13.63" gradientTransform="matrix(13.448928, 0, 0, 13.461537, -22.944115, -22.98509)" y1="34.720185" x2="13.63" gradientUnits="userSpaceOnUse" y2="19.282289" id="60d60fd4e8"><stop stop-opacity="1" stop-color="rgb(100%, 100%, 100%)" offset="0"/><stop stop-opacity="1" stop-color="rgb(100%, 100%, 100%)" offset="0.5"/><stop stop-opacity="1" stop-color="rgb(100%, 100%, 100%)" offset="0.75"/><stop stop-opacity="1" stop-color="rgb(100%, 100%, 100%)" offset="0.875"/><stop stop-opacity="1" stop-color="rgb(99.897766%, 99.942017%, 99.949646%)" offset="0.90625"/><stop stop-opacity="1" stop-color="rgb(99.635315%, 99.790955%, 99.821472%)" offset="0.921875"/><stop stop-opacity="1" stop-color="rgb(99.310303%, 99.606323%, 99.661255%)" offset="0.9375"/><stop stop-opacity="1" stop-color="rgb(98.986816%, 99.421692%, 99.502563%)" offset="0.953125"/><stop stop-opacity="1" stop-color="rgb(98.66333%, 99.237061%, 99.343872%)" offset="0.96875"/><stop stop-opacity="1" stop-color="rgb(98.338318%, 99.052429%, 99.185181%)" offset="0.984375"/><stop stop-opacity="1" stop-color="rgb(98.014832%, 98.867798%, 99.026489%)" offset="1"/></linearGradient><clipPath id="dbc4151b65"><path d="M 377 236 L 502 236 L 502 445 L 377 445 Z M 377 236 " clip-rule="nonzero"/></clipPath><clipPath id="b3c6efa2ea"><path d="M 397.46875 444.398438 C 398.792969 444.402344 400.105469 444.273438 401.40625 444.015625 C 402.703125 443.757812 403.964844 443.375 405.191406 442.867188 C 406.414062 442.359375 407.574219 441.734375 408.675781 440.996094 C 409.773438 440.257812 410.792969 439.417969 411.726562 438.476562 L 495.378906 354.746094 C 495.839844 354.277344 496.277344 353.785156 496.695312 353.273438 C 497.109375 352.757812 497.496094 352.226562 497.859375 351.679688 C 498.222656 351.128906 498.558594 350.5625 498.867188 349.976562 C 499.175781 349.394531 499.453125 348.796875 499.703125 348.1875 C 499.953125 347.578125 500.175781 346.957031 500.363281 346.324219 C 500.554688 345.691406 500.710938 345.054688 500.839844 344.40625 C 500.964844 343.757812 501.0625 343.105469 501.125 342.449219 C 501.191406 341.792969 501.222656 341.136719 501.222656 340.476562 C 501.222656 339.816406 501.191406 339.160156 501.125 338.503906 C 501.0625 337.847656 500.964844 337.195312 500.839844 336.546875 C 500.710938 335.898438 500.554688 335.261719 500.363281 334.628906 C 500.175781 333.996094 499.953125 333.375 499.703125 332.765625 C 499.453125 332.15625 499.175781 331.558594 498.867188 330.976562 C 498.558594 330.390625 498.222656 329.824219 497.859375 329.273438 C 497.496094 328.726562 497.109375 328.191406 496.695312 327.679688 C 496.277344 327.167969 495.839844 326.675781 495.378906 326.207031 L 411.726562 242.476562 C 411.257812 242.007812 410.765625 241.566406 410.253906 241.144531 C 409.742188 240.726562 409.207031 240.332031 408.65625 239.964844 C 408.105469 239.597656 407.539062 239.257812 406.953125 238.945312 C 406.371094 238.636719 405.769531 238.355469 405.160156 238.101562 C 404.546875 237.847656 403.921875 237.628906 403.289062 237.4375 C 402.65625 237.246094 402.011719 237.085938 401.363281 236.957031 C 400.714844 236.828125 400.058594 236.734375 399.402344 236.667969 C 398.742188 236.605469 398.082031 236.574219 397.417969 236.574219 C 396.757812 236.578125 396.097656 236.609375 395.4375 236.675781 C 394.777344 236.742188 394.125 236.84375 393.476562 236.972656 C 392.828125 237.101562 392.183594 237.265625 391.550781 237.460938 C 390.917969 237.652344 390.296875 237.878906 389.683594 238.132812 C 389.074219 238.386719 388.476562 238.671875 387.894531 238.984375 C 387.308594 239.300781 386.742188 239.640625 386.195312 240.011719 C 385.644531 240.378906 385.113281 240.773438 384.601562 241.195312 C 384.09375 241.617188 383.601562 242.0625 383.136719 242.535156 C 382.667969 243.003906 382.226562 243.496094 381.808594 244.007812 C 381.386719 244.523438 380.996094 245.054688 380.628906 245.605469 C 380.261719 246.160156 379.925781 246.726562 379.613281 247.3125 C 379.304688 247.898438 379.023438 248.496094 378.769531 249.109375 C 378.519531 249.722656 378.296875 250.347656 378.105469 250.980469 C 377.914062 251.617188 377.757812 252.257812 377.628906 252.910156 C 377.5 253.558594 377.40625 254.214844 377.34375 254.875 C 377.28125 255.535156 377.25 256.195312 377.25 256.859375 C 377.253906 257.519531 377.285156 258.179688 377.355469 258.839844 C 377.421875 259.5 377.519531 260.15625 377.648438 260.804688 C 377.78125 261.453125 377.945312 262.097656 378.136719 262.730469 C 378.332031 263.363281 378.554688 263.984375 378.8125 264.597656 C 379.066406 265.210938 379.351562 265.808594 379.664062 266.390625 C 379.980469 266.972656 380.320312 267.539062 380.691406 268.089844 C 381.058594 268.640625 381.453125 269.171875 381.875 269.683594 C 382.296875 270.191406 382.742188 270.683594 383.214844 271.148438 L 452.609375 340.476562 L 383.214844 409.804688 C 382.515625 410.511719 381.875 411.261719 381.292969 412.0625 C 380.707031 412.863281 380.179688 413.703125 379.71875 414.582031 C 379.253906 415.457031 378.859375 416.363281 378.527344 417.300781 C 378.199219 418.234375 377.9375 419.191406 377.746094 420.164062 C 377.554688 421.136719 377.4375 422.121094 377.390625 423.113281 C 377.34375 424.101562 377.367188 425.09375 377.46875 426.078125 C 377.566406 427.066406 377.734375 428.042969 377.972656 429.003906 C 378.214844 429.96875 378.523438 430.90625 378.902344 431.824219 C 379.28125 432.742188 379.722656 433.625 380.230469 434.480469 C 380.738281 435.332031 381.304688 436.140625 381.929688 436.910156 C 382.554688 437.679688 383.234375 438.398438 383.964844 439.070312 C 384.699219 439.738281 385.472656 440.351562 386.292969 440.910156 C 387.117188 441.464844 387.972656 441.957031 388.867188 442.386719 C 389.757812 442.820312 390.679688 443.183594 391.625 443.476562 C 392.570312 443.773438 393.535156 444 394.511719 444.152344 C 395.492188 444.308594 396.476562 444.390625 397.46875 444.398438 Z M 397.46875 444.398438 " clip-rule="nonzero"/></clipPath><linearGradient x1="34.369999" gradientTransform="matrix(13.448928, 0, 0, 13.461537, -22.944115, -22.98509)" y1="34.720189" x2="34.369999" gradientUnits="userSpaceOnUse" y2="19.281571" id="8fab871bed"><stop stop-opacity="1" stop-color="rgb(100%, 100%, 100%)" offset="0"/><stop stop-opacity="1" stop-color="rgb(100%, 100%, 100%)" offset="0.5"/><stop stop-opacity="1" stop-color="rgb(100%, 100%, 100%)" offset="0.75"/><stop stop-opacity="1" stop-color="rgb(100%, 100%, 100%)" offset="0.875"/><stop stop-opacity="1" stop-color="rgb(99.897766%, 99.942017%, 99.949646%)" offset="0.90625"/><stop stop-opacity="1" stop-color="rgb(99.633789%, 99.790955%, 99.819946%)" offset="0.921875"/><stop stop-opacity="1" stop-color="rgb(99.310303%, 99.606323%, 99.661255%)" offset="0.9375"/><stop stop-opacity="1" stop-color="rgb(98.985291%, 99.421692%, 99.502563%)" offset="0.953125"/><stop stop-opacity="1" stop-color="rgb(98.661804%, 99.237061%, 99.343872%)" offset="0.96875"/><stop stop-opacity="1" stop-color="rgb(98.338318%, 99.050903%, 99.185181%)" offset="0.984375"/><stop stop-opacity="1" stop-color="rgb(98.013306%, 98.866272%, 99.026489%)" offset="1"/></linearGradient></defs><rect x="-60" width="720" fill="#ffffff" y="-60" height="719.999999" fill-opacity="1"/><rect x="-60" width="720" fill="#ffffff" y="-60" height="719.999999" fill-opacity="1"/><rect x="-60" width="720" fill="#1f1d2e" y="-60" height="719.999999" fill-opacity="1"/><g clip-path="url(#7444e286b0)"><g clip-path="url(#a53f8dbd60)"><path fill="url(#12371ceaff)" d="M 17.402344 37.59375 L 17.402344 562.589844 L 582.257812 562.589844 L 582.257812 37.59375 Z M 17.402344 37.59375 " fill-rule="nonzero"/></g></g><g clip-path="url(#b8f5adbd57)"><g clip-path="url(#9baf5a2d4c)"><path fill="url(#488735a221)" d="M 17.398438 37.59375 L 17.398438 118.359375 L 582.261719 118.359375 L 582.261719 37.59375 Z M 17.398438 37.59375 " fill-rule="nonzero"/></g></g><g clip-path="url(#0bafa6179b)"><path fill="url(#2b204b9450)" d="M 17.402344 118.359375 L 17.402344 158.746094 L 582.257812 158.746094 L 582.257812 118.359375 Z M 17.402344 118.359375 " fill-rule="nonzero"/></g><g clip-path="url(#6c45491242)"><g clip-path="url(#ddeb274407)"><path fill="url(#5cae08a58d)" d="M 79 68.148438 L 79 87.804688 L 98.632812 87.804688 L 98.632812 68.148438 Z M 79 68.148438 " fill-rule="nonzero"/></g></g><g clip-path="url(#c8c25f927d)"><g clip-path="url(#78ef1407e6)"><path fill="url(#d75fac8c89)" d="M 128.625 68.148438 L 128.625 87.804688 L 148.261719 87.804688 L 148.261719 68.148438 Z M 128.625 68.148438 " fill-rule="nonzero"/></g></g><g clip-path="url(#b1c982fcab)"><g clip-path="url(#21f8878bb3)"><path fill="url(#eba89bc85a)" d="M 178.25 68.148438 L 178.25 87.804688 L 197.886719 87.804688 L 197.886719 68.148438 Z M 178.25 68.148438 " fill-rule="nonzero"/></g></g><g clip-path="url(#a291329d18)"><g clip-path="url(#7e6b2555d5)"><path fill="url(#4030f96725)" d="M 266.347656 192.886719 L 161.308594 401.019531 L 333.3125 488.066406 L 438.351562 279.933594 Z M 266.347656 192.886719 " fill-rule="nonzero"/></g></g><g clip-path="url(#0dc501d952)"><g clip-path="url(#0db065a32e)"><path fill="url(#aaf1cac242)" d="M 98.363281 340.476562 L 98.363281 562.589844 L 222.363281 562.589844 L 222.363281 340.476562 Z M 98.363281 340.476562 " fill-rule="nonzero"/></g></g><g clip-path="url(#5cbcfe8d52)"><g clip-path="url(#da3fb6a77c)"><path fill="url(#a70a9b066e)" d="M 503.042969 340.476562 L 503.042969 562.589844 L 379.042969 562.589844 L 379.042969 340.476562 Z M 503.042969 340.476562 " fill-rule="nonzero"/></g></g><g clip-path="url(#c74399353b)"><g clip-path="url(#1b004ad3a8)"><path fill="url(#60d60fd4e8)" d="M 98.4375 236.585938 L 98.4375 444.402344 L 222.402344 444.402344 L 222.402344 236.585938 Z M 98.4375 236.585938 " fill-rule="nonzero"/></g></g><g clip-path="url(#dbc4151b65)"><g clip-path="url(#b3c6efa2ea)"><path fill="url(#8fab871bed)" d="M 377.25 236.574219 L 377.25 444.402344 L 501.222656 444.402344 L 501.222656 236.574219 Z M 377.25 236.574219 " fill-rule="nonzero"/></g></g></svg>