<svg xmlns="http://www.w3.org/2000/svg" xmlns:xlink="http://www.w3.org/1999/xlink" width="800" zoomAndPan="magnify" viewBox="0 0 600 599.999999" height="800" preserveAspectRatio="xMidYMid meet" version="1.0"><defs><g/></defs><rect x="-60" width="720" fill="#ffffff" y="-60" height="719.999999" fill-opacity="1"/><rect x="-60" width="720" fill="#ffffff" y="-60" height="719.999999" fill-opacity="1"/><rect x="-60" width="720" fill="#f78166" y="-60" height="719.999999" fill-opacity="1"/><g fill="#efebe2" fill-opacity="1"><g transform="translate(185.181379, 388.468265)"><g><path d="M 138.796875 -54.203125 L 51.78125 -54.203125 L 32.234375 0 L 4 0 L 83.3125 -207.703125 L 107.28125 -207.703125 L 186.734375 0 L 158.625 0 Z M 60.0625 -76.75 L 130.671875 -76.75 L 95.296875 -173.890625 Z M 60.0625 -76.75 "/></g></g></g><path stroke-linecap="round" transform="matrix(0.55945, 0.348608, -0.348056, 0.558564, 25.683821, 292.432272)" fill="none" stroke-linejoin="miter" d="M 27.498161 27.500079 L 258.04676 27.499896 " stroke="#efebe2" stroke-width="55" stroke-opacity="1" stroke-miterlimit="4"/><path stroke-linecap="round" transform="matrix(0.542985, -0.370208, 0.370743, 0.54377, -0.00061988, 292.836658)" fill="none" stroke-linejoin="miter" d="M 27.497775 27.498074 L 264.933605 27.502331 " stroke="#efebe2" stroke-width="55" stroke-opacity="1" stroke-miterlimit="4"/><path stroke-linecap="round" transform="matrix(-0.545407, -0.339858, 0.33932, -0.544543, 574.955016, 311.217576)" fill="none" stroke-linejoin="miter" d="M 27.49652 27.498697 L 258.050759 27.49825 " stroke="#efebe2" stroke-width="55" stroke-opacity="1" stroke-miterlimit="4"/><path stroke-linecap="round" transform="matrix(-0.529356, 0.360916, -0.361437, -0.530121, 599.994767, 310.823328)" fill="none" stroke-linejoin="miter" d="M 27.503875 27.499468 L 264.931339 27.499336 " stroke="#efebe2" stroke-width="55" stroke-opacity="1" stroke-miterlimit="4"/><path stroke-linecap="round" transform="matrix(0.0629489, -0.747512, 0.747355, 0.0629357, 375.767123, 426.947162)" fill="none" stroke-linejoin="miter" d="M 14.998474 15.000395 L 356.924525 14.999823 " stroke="#efebe2" stroke-width="30" stroke-opacity="1" stroke-miterlimit="4"/></svg>