<svg xmlns="http://www.w3.org/2000/svg" xmlns:xlink="http://www.w3.org/1999/xlink" width="800" zoomAndPan="magnify" viewBox="0 0 600 599.999999" height="800" preserveAspectRatio="xMidYMid meet" version="1.0"><defs><g/></defs><rect x="-60" width="720" fill="#ffffff" y="-60" height="719.999999" fill-opacity="1"/><rect x="-60" width="720" fill="#ffffff" y="-60" height="719.999999" fill-opacity="1"/><rect x="-60" width="720" fill="#f78166" y="-60" height="719.999999" fill-opacity="1"/><g fill="#efebe2" fill-opacity="1"><g transform="translate(168.73142, 405.859826)"><g><path d="M 147.59375 -57.640625 L 55.0625 -57.640625 L 34.28125 0 L 4.25 0 L 88.578125 -220.859375 L 114.0625 -220.859375 L 198.5625 0 L 168.671875 0 Z M 63.859375 -81.609375 L 138.953125 -81.609375 L 101.328125 -184.90625 Z M 63.859375 -81.609375 "/></g></g></g><path stroke-linecap="round" transform="matrix(0.611843, 0.381256, -0.380652, 0.610873, 10.746842, 302.547516)" fill="none" stroke-linejoin="miter" d="M 27.501744 27.500499 L 258.049677 27.501664 " stroke="#efebe2" stroke-width="55" stroke-opacity="1" stroke-miterlimit="4"/><path stroke-linecap="round" transform="matrix(0.593836, -0.404879, 0.405464, 0.594694, -17.342949, 302.989812)" fill="none" stroke-linejoin="miter" d="M 27.497827 27.500537 L 264.931597 27.498918 " stroke="#efebe2" stroke-width="55" stroke-opacity="1" stroke-miterlimit="4"/><path stroke-linecap="round" transform="matrix(-0.611843, -0.381256, 0.380652, -0.610873, 593.901119, 326.668453)" fill="none" stroke-linejoin="miter" d="M 27.499144 27.49757 L 258.047077 27.498735 " stroke="#efebe2" stroke-width="55" stroke-opacity="1" stroke-miterlimit="4"/><path stroke-linecap="round" transform="matrix(-0.593836, 0.404879, -0.405464, -0.594694, 621.99091, 326.226217)" fill="none" stroke-linejoin="miter" d="M 27.499412 27.497041 L 264.93012 27.499906 " stroke="#efebe2" stroke-width="55" stroke-opacity="1" stroke-miterlimit="4"/><path stroke-linecap="round" transform="matrix(0.0837905, -0.745954, 0.745313, 0.0837184, 357.860843, 460.664064)" fill="none" stroke-linejoin="miter" d="M 20.001599 19.997804 L 415.630846 20.00101 " stroke="#efebe2" stroke-width="40" stroke-opacity="1" stroke-miterlimit="4"/></svg>